<?xml version="1.0" encoding="UTF-8"?>
<!DOCTYPE svg PUBLIC "-//W3C//DTD SVG 1.1//EN" "http://www.w3.org/Graphics/SVG/1.1/DTD/svg11.dtd">
<!-- Creator: CorelDRAW X7 -->
<svg xmlns="http://www.w3.org/2000/svg" xml:space="preserve" width="6.39999in" height="6.39999in" version="1.1" style="shape-rendering:geometricPrecision; text-rendering:geometricPrecision; image-rendering:optimizeQuality; fill-rule:evenodd; clip-rule:evenodd"
viewBox="0 0 6400 6400"
 xmlns:xlink="http://www.w3.org/1999/xlink">
 <defs>
  <style type="text/css">
   <![CDATA[
    .fil0 {fill:none}
    .fil2 {fill:#36DF6D}
    .fil1 {fill:#9A15C2}
    .fil3 {fill:#9A15C2;fill-rule:nonzero}
   ]]>
  </style>
 </defs>
 <g id="Layer_x0020_1">
  <metadata id="CorelCorpID_0Corel-Layer"/>
  <rect class="fil0" width="6400" height="6400"/>
  <path class="fil1" d="M1096 2879c20,-9 46,-27 69,-39 77,-42 471,-274 482,-275 8,-1 292,166 344,195 66,36 143,85 207,117 2,156 -1,325 0,482l128 73c13,8 29,18 43,24l0 -683c-50,-24 -317,-180 -363,-207 -62,-36 -120,-69 -182,-104l-135 -77c-8,-5 -39,-25 -45,-25l-361 207c-34,20 -350,202 -362,205l0 196c0,210 -4,440 0,647l314 179c104,60 209,119 313,179l120 67c5,0 183,-103 194,-110 52,-29 105,-58 157,-89 26,-15 142,-79 155,-90 -34,-15 -139,-82 -184,-105 -28,12 -329,191 -336,191l-280 -159c-35,-20 -249,-147 -277,-159l-1 -640z"/>
  <path class="fil2" d="M1746 3410c7,8 63,37 77,46 26,15 51,28 77,44 26,14 53,29 79,45l311 178c14,8 68,40 79,44l0 -206c-13,-4 -44,-23 -57,-31 -19,-11 -36,-20 -55,-31l-333 -191 -135 78c-12,6 -31,19 -43,24z"/>
  <path class="fil3" d="M2810 3090l122 0 0 393 -122 0 0 -167c0,36 -5,65 -17,89 -12,23 -25,41 -42,55 -16,13 -32,23 -50,28 -17,5 -31,8 -43,8 -14,0 -30,-2 -50,-5 -19,-3 -38,-11 -57,-23 -18,-12 -33,-30 -46,-54 -13,-23 -19,-55 -19,-94l0 -230 121 0 0 211c0,13 3,25 8,35 6,11 14,20 23,27 9,7 20,13 31,17 11,4 22,6 34,6 12,0 25,-2 37,-7 13,-4 25,-10 35,-18 11,-8 19,-17 26,-27 6,-10 9,-21 9,-33l0 -211z"/>
  <path id="1" class="fil3" d="M3048 3007c-20,0 -38,-7 -52,-21 -15,-13 -22,-31 -22,-53 0,-21 7,-39 22,-53 14,-13 32,-20 52,-20 21,0 39,7 53,21 14,14 21,32 21,52 0,21 -7,39 -21,53 -13,14 -31,21 -53,21zm-64 66l131 0 0 423 -131 0 0 -423z"/>
  <polygon id="2" class="fil3" points="3271,3496 3165,3072 3301,3072 3407,3495 3408,3495 3516,3072 3651,3072 3541,3496 "/>
  <path id="3" class="fil3" d="M3820 3507c-20,0 -41,-3 -61,-8 -20,-6 -38,-14 -54,-25 -16,-11 -29,-25 -39,-42 -10,-17 -15,-36 -15,-58 0,-22 5,-41 16,-57 11,-16 25,-29 42,-39 17,-10 35,-18 56,-23 21,-5 41,-9 60,-10l176 -9 0 -8c0,-14 -4,-25 -11,-33 -7,-8 -17,-14 -28,-18 -11,-3 -22,-6 -35,-7 -13,-1 -25,-2 -36,-2 -10,0 -22,1 -34,2 -13,1 -25,3 -37,7 -12,4 -21,9 -29,17 -8,8 -12,18 -12,31l-118 0c0,-29 6,-54 19,-74 12,-20 29,-35 49,-47 21,-12 45,-20 72,-25 27,-5 55,-7 85,-7 38,0 71,3 101,10 30,6 55,17 75,32 21,15 37,34 47,57 11,23 17,51 17,84l0 240 -123 0 0 -151c0,24 -4,44 -10,61 -7,17 -16,32 -27,44 -10,12 -22,21 -36,29 -13,8 -26,13 -40,18 -14,4 -26,7 -39,9 -12,1 -22,2 -31,2zm48 -90c13,-1 27,-3 43,-5 15,-2 30,-6 43,-12 14,-5 25,-13 35,-23 9,-9 14,-21 14,-36l0 -22 -117 6c-7,0 -16,1 -28,2 -12,1 -24,3 -35,6 -12,2 -22,7 -30,12 -8,6 -12,14 -12,24 0,9 3,17 9,23 6,7 14,12 22,16 9,3 19,6 29,8 10,1 19,2 27,1z"/>
  <path id="4" class="fil3" d="M4296 3072l0 164c7,-39 17,-70 31,-93 14,-23 30,-41 46,-53 16,-12 33,-20 50,-24 17,-4 32,-5 44,-5 36,0 66,5 90,16 25,10 45,25 60,45 15,19 26,43 33,70 7,28 10,58 10,91 0,31 -3,59 -10,86 -7,27 -17,50 -32,69 -14,20 -33,35 -56,46 -23,11 -51,16 -85,16 -12,0 -27,-1 -45,-5 -17,-4 -35,-12 -53,-23 -17,-12 -34,-30 -49,-53 -15,-23 -27,-54 -34,-93l0 340 -128 0 0 -594 128 0zm1 211c0,17 3,32 9,45 6,13 15,23 25,32 11,8 23,15 37,19 15,4 30,6 47,6 34,0 61,-8 83,-25 22,-17 33,-43 33,-77 0,-35 -10,-62 -31,-79 -21,-18 -49,-27 -85,-27 -35,0 -63,9 -85,27 -22,17 -33,44 -33,79z"/>
  <path id="5" class="fil3" d="M4994 3194l-66 0c-20,0 -37,2 -49,6 -12,4 -22,11 -29,19 -7,8 -11,19 -13,32 -3,12 -4,28 -4,45l0 200 -130 0 0 -423 129 0 0 165c0,-24 4,-47 11,-67 7,-21 16,-38 28,-53 11,-15 25,-26 39,-34 15,-8 30,-12 45,-12l39 0 0 122z"/>
  <path id="6" class="fil3" d="M4998 3283c0,-73 22,-127 64,-162 43,-35 103,-52 180,-52 37,0 71,4 101,12 30,8 55,21 75,38 20,18 36,40 47,67 10,27 16,60 16,97 0,72 -22,125 -64,160 -42,35 -101,53 -175,53 -36,0 -69,-4 -98,-13 -30,-9 -55,-22 -77,-40 -21,-18 -38,-40 -50,-66 -13,-27 -19,-58 -19,-94zm127 0c0,37 10,64 30,79 20,15 49,22 87,22 35,0 63,-9 83,-26 19,-18 29,-43 29,-75 0,-34 -10,-60 -29,-76 -20,-17 -48,-25 -83,-25 -37,0 -65,8 -86,26 -21,17 -31,42 -31,75z"/>
 </g>
</svg>
